HIERARCHY
ROOT Hips
{
  OFFSET -187.679 86.5976 -156.378
  CHANNELS 6 Xposition Yposition Zposition Zrotation Xrotation Yrotation
  JOINT LeftUpLeg
  {
    OFFSET 8.64259 1.95398 -2.38835
    CHANNELS 3 Zrotation Xrotation Yrotation
    JOINT LeftLeg
    {
      OFFSET 43.7702 0 0
      CHANNELS 3 Zrotation Xrotation Yrotation
      JOINT LeftFoot
      {
        OFFSET 40.6238 0 0
        CHANNELS 3 Zrotation Xrotation Yrotation
        JOINT LeftToeBase
        {
          OFFSET 12.7242 0 0
          CHANNELS 3 Zrotation Xrotation Yrotation
          End Site
          {
            OFFSET 0 0 0
          }
        }
      }
    }
  }
  JOINT RightUpLeg
  {
    OFFSET -8.2249 1.95398 -2.59336
    CHANNELS 3 Zrotation Xrotation Yrotation
    JOINT RightLeg
    {
      OFFSET 43.5653 0 0
      CHANNELS 3 Zrotation Xrotation Yrotation
      JOINT RightFoot
      {
        OFFSET 40.6238 0 0
        CHANNELS 3 Zrotation Xrotation Yrotation
        JOINT RightToeBase
        {
          OFFSET 12.7242 0 0
          CHANNELS 3 Zrotation Xrotation Yrotation
          End Site
          {
            OFFSET 0 0 0
          }
        }
      }
    }
  }
  JOINT Spine
  {
    OFFSET 0.165834 0.87714 6.61349
    CHANNELS 3 Zrotation Xrotation Yrotation
    JOINT Spine1
    {
      OFFSET 7.38963 1.71661e-005 0
      CHANNELS 3 Zrotation Xrotation Yrotation
      JOINT Spine2
      {
        OFFSET 11.9445 1.14441e-005 0
        CHANNELS 3 Zrotation Xrotation Yrotation
        JOINT Spine3
        {
          OFFSET 14.7254 4.19617e-005 0
          CHANNELS 3 Zrotation Xrotation Yrotation
          JOINT Spine4
          {
            OFFSET 10.9679 0 0
            CHANNELS 3 Zrotation Xrotation Yrotation
            JOINT RightShoulder
            {
              OFFSET 2.46616 -1.6653 3.69651
              CHANNELS 3 Zrotation Xrotation Yrotation
              JOINT RightArm
              {
                OFFSET 13.0012 0 0
                CHANNELS 3 Zrotation Xrotation Yrotation
                JOINT RightForeArm
                {
                  OFFSET 28.7848 1.52588e-005 0
                  CHANNELS 3 Zrotation Xrotation Yrotation
                  JOINT RightHand
                  {
                    OFFSET 26.5688 1.52588e-005 0
                    CHANNELS 3 Zrotation Xrotation Yrotation
                    End Site
                    {
                      OFFSET 0 0 0
                    }
                  }
                }
              }
            }
            JOINT LeftShoulder
            {
              OFFSET 2.38034 -1.29275 -3.7523
              CHANNELS 3 Zrotation Xrotation Yrotation
              JOINT LeftArm
              {
                OFFSET 16.3182 6.10352e-005 0
                CHANNELS 3 Zrotation Xrotation Yrotation
                JOINT LeftForeArm
                {
                  OFFSET 27.0901 0 0
                  CHANNELS 3 Zrotation Xrotation Yrotation
                  JOINT LeftHand
                  {
                    OFFSET 24.5451 1.52588e-005 0
                    CHANNELS 3 Zrotation Xrotation Yrotation
                    End Site
                    {
                      OFFSET 0 0 0
                    }
                  }
                }
              }
            }
            JOINT Neck
            {
              OFFSET 5.0226 -0.0266342 0
              CHANNELS 3 Zrotation Xrotation Yrotation
              JOINT Head
              {
                OFFSET 6.69363 2.86102e-005 0
                CHANNELS 3 Zrotation Xrotation Yrotation
                End Site
                {
                  OFFSET 0 0 0
                }
              }
            }
          }
        }
      }
    }
  }
}
MOTION
Frames:	12
Frame Time:	0.0416667
-72.0021 98.5401 87.1912 -103.592 -43.7201 -100.291 -174.668 7.20885 90.3837 -38.688 26.3027 7.90969 76.481 7.10061 -2.91732 15.511 -5.91543 1.28327 169.857 3.23305 84.2177 -60.0312 -6.6586 -1.67707 61.7731 -1.60598 0.186679 28.8633 -0.615298 2.2007 1.03749 8.22495 -89.5751 10.4185 2.26154 0.645513 -1.25062 2.28776 0.545296 -23.7971 1.96295 1.29555 -3.78444 1.96296 1.29556 87.3304 -47.5656 -105.384 17.371 -17.5122 -18.0063 -19.7386 -15.2575 -22.7451 -12.1062 -0.27234 -2.46383 -86.1825 -41.6901 83.2891 -38.3391 17.3213 21.5373 11.2201 -0.195431 -18.9076 0.381992 0.0597516 1.90045 0.464663 -5.55744 -13.3402 9.98045 -3.65482 -1.03287 
-67.865 97.6684 82.3681 -101.925 -43.9994 -99.6606 -177.075 12.7156 88.9968 -39.0929 24.6949 8.55089 76.2033 6.97229 -3.4204 11.0299 -9.83773 4.92371 173.536 -4.7367 83.433 -53.5802 -23.3675 -7.68353 64.0165 -2.25154 0.823993 30.9805 -0.487777 3.1218 1.53958 8.02266 -89.6149 10.825 3.24347 0.464087 -0.841923 3.26073 0.320724 -23.4045 2.95391 1.41822 -3.39189 2.9539 1.41821 86.3204 -47.5234 -106.97 14.8223 -20.0474 -21.7638 -19.1191 -15.6872 -22.1457 -10.4193 -0.159677 -3.34763 -85.1282 -42.1948 85.1157 -43.1869 14.5776 24.2267 10.5576 -2.89132 -20.491 -2.04468 -0.0694454 0.693774 1.62661 -6.63768 -11.4797 10.0217 -4.9087 -1.47861 
-62.8462 97.0417 75.0671 -99.1193 -44.0715 -98.1104 -179.099 19.0181 89.0582 -35.5255 25.0831 9.29512 68.3177 3.63737 -3.88555 15.2465 -8.23567 5.82128 177.535 -7.38168 85.57 -44.8016 -29.3077 -12.015 72.7368 -5.26985 -0.459074 32.4982 -1.06617 6.43584 1.87366 7.97415 -89.7192 10.9268 3.86032 0.194532 -0.738411 3.86513 0.0241797 -23.3154 3.62314 1.34725 -3.3028 3.62316 1.34725 86.8143 -45.66 -106.781 13.5782 -22.4744 -29.8511 -16.3438 -12.9588 -18.3569 -10.8533 -0.0974958 -4.13337 -84.5381 -44.432 86.4138 -44.9187 13.5703 22.6538 9.79754 -5.00458 -18.9555 -3.33566 -0.115883 -0.898668 4.92997 -6.309 -5.01983 9.28198 -5.65986 -3.78416 
-57.254 96.8165 66.1226 -97.3029 -49.8026 -97.135 -178.613 22.7312 89.8949 -25.8125 34.4551 7.94119 65.697 3.14712 -1.06492 21.1926 -6.6057 8.70044 176.956 -0.632376 86.2374 -42.992 -24.2633 -8.36342 79.0275 -7.2664 0.178548 29.4616 -1.33084 5.14137 1.70984 8.26567 -89.891 10.3484 3.45617 -0.0861253 -1.31802 3.44903 -0.238337 -23.8881 3.32211 0.957758 -3.87542 3.32209 0.957741 85.9209 -45.2528 -108.334 9.41457 -24.1447 -38.1847 -14.4664 -9.95136 -16.5156 -11.5112 -0.0311875 -4.85632 -84.2846 -45.0362 86.903 -43.1468 12.2155 18.8836 10.1973 -5.26565 -21.4062 -1.9397 -0.0759843 -1.06065 11.7219 -4.50311 1.66467 8.87799 -5.26747 -4.832 
-53.4017 97.9674 58.8742 -94.1936 -61.302 -95.6512 -178.085 23.2499 88.2125 -15.7634 4.40791 3.12808 67.0982 3.62728 -3.18935 21.3378 -6.19038 7.88857 174.323 3.80479 87.2101 -37.4672 -17.3961 -3.05584 78.6714 -7.06428 -0.89036 26.3978 -1.42351 3.40985 1.51069 8.21932 -89.9394 10.4401 3.03711 -0.147413 -1.22735 3.02768 -0.281068 -23.7898 2.94087 0.772988 -3.77714 2.94088 0.772995 85.0325 -46.6709 -109.255 9.9612 -26.5505 -37.9707 -13.6269 -9.00451 -15.9726 -10.8082 -0.0604822 -4.52661 -84.3665 -42.7096 86.4498 -40.6394 11.3507 15.6962 10.1097 -6.44216 -22.4153 -0.485097 -0.0468474 -1.76543 15.3901 -2.31444 2.95564 7.33008 -3.21493 -2.06434 
-50.5444 100.648 53.6582 -91.7763 -76.159 -96.1789 -177.211 24.2858 84.8514 -29.3091 -3.64624 1.96814 66.9467 2.69797 -2.04295 16.9403 -6.93341 4.79917 173.511 3.94172 86.8377 -27.8233 -3.67189 -0.507075 73.8918 -5.48452 -1.38602 24.4331 -1.33756 2.02501 1.22063 8.05705 -89.6512 10.7578 2.59152 0.453767 -0.910605 2.60899 0.339191 -23.4629 2.33528 1.21203 -3.45023 2.33527 1.21203 84.8768 -47.3699 -109.259 13.4484 -31.5321 -35.7409 -11.8021 -12.6998 -13.3667 -8.65395 0.108203 -6.803 -84.2399 -39.8315 86.2429 -37.7255 9.64894 13.3241 9.7875 -7.83681 -22.3884 3.89247 -0.00157699 -2.66286 15.4525 0.918381 3.86389 6.64695 -0.266017 -1.25673 
-47.6149 101.462 50.5168 126.301 -88.1369 119.599 -174.539 18.453 87.1535 -38.9497 9.62184 1.72727 69.671 5.16463 0.656188 13.7156 -6.60668 1.13705 171.815 3.86918 84.5148 -25.3746 9.93523 1.4565 72.2791 -4.43906 -0.00666752 23.9873 -1.06769 0.984479 1.04563 7.94128 -89.3344 10.979 2.38982 1.09639 -0.690105 2.43575 0.990098 -23.2342 1.94985 1.76406 -3.22159 1.94985 1.76406 85.6502 -47.6264 -107.976 19.3858 -34.5967 -29.8477 -13.5052 -10.0913 -18.3752 -7.70435 0.0787726 -6.6067 -83.7255 -38.5374 86.9365 -36.5236 8.27898 13.6869 12.1183 -3.30975 -25.1931 3.30992 0.112707 -0.156185 10.4873 5.89288 5.51701 7.90966 4.40497 -0.694692 
-43.474 101.598 48.0979 97.253 -72.5953 91.2916 -172.772 11.9114 94.0507 -34.8581 0.616776 3.30141 69.4502 5.42917 2.52538 9.14142 -7.81165 -0.442036 169.561 1.24364 83.1133 -22.4402 21.3678 4.13903 69.3213 -4.11316 0.80546 27.1482 -0.0098289 -0.81657 0.795125 7.74711 -89.4289 11.3723 1.84858 0.952845 -0.29764 1.88873 0.870532 -22.8372 1.47676 1.4644 -2.82458 1.47677 1.4644 85.4302 -48.625 -107.992 25.129 -31.7324 -20.9665 -18.6042 -5.24534 -31.2042 -7.77072 -0.0717748 -4.1874 -83.292 -38.8056 87.7245 -39.1673 8.23257 16.6862 12.5768 -1.80699 -23.8537 1.54708 0.0559054 -0.136501 3.0855 12.8384 8.83424 9.60146 11.1991 0.645643 
-37.2662 101.277 44.3356 95.3328 -53.9224 89.0511 -171.881 9.70729 95.9014 -26.9016 -17.8157 2.12028 69.0874 4.62018 1.35384 10.505 -7.58116 0.253904 165.866 -0.344609 79.4209 -24.2921 34.6161 7.833 66.33 -3.52278 2.34796 29.9539 0.991442 -2.97623 0.549541 7.6929 -89.5766 11.484 1.29131 0.711922 -0.186495 1.32139 0.654394 -22.7236 1.01766 1.06711 -2.71095 1.01767 1.06711 85.8676 -48.691 -107.302 28.0822 -23.6526 -16.3491 -23.0758 -6.19895 -38.3635 -6.76894 -0.102231 -3.4981 -83.622 -39.677 87.2745 -42.7347 11.5212 17.5156 11.5848 -1.69384 -19.1135 -1.76323 -0.0665485 -0.389632 -1.12827 17.0258 12.6237 9.1706 15.245 0.9011 
-29.0459 100.162 38.3977 95.6722 -34.2292 87.5909 -171.349 9.89398 92.0828 -28.4533 -16.1592 -0.706945 68.6253 4.04606 -1.23647 14.2874 -6.0142 0.393864 160.651 -3.10147 72.0203 -28.511 40.6955 11.6337 61.2175 -1.34752 1.7764 32.1277 2.30507 -7.05643 0.587976 7.74621 -89.7549 11.3795 1.28436 0.359009 -0.290806 1.29891 0.302118 -22.8296 1.11708 0.728453 -2.81691 1.11708 0.728451 87.2391 -47.2715 -105.613 28.1515 -15.3056 -12.7421 -21.7973 -4.7711 -36.2214 -9.39888 -0.154205 -3.25434 -84.3637 -40.8489 86.1845 -43.6926 13.284 17.9534 10.639 -3.20143 -17.9745 -3.05616 -0.111092 -0.176392 -3.50228 15.9661 13.3535 9.75597 14.4577 1.34734 
-20.0725 98.8891 30.9578 96.5582 -17.9956 85.7642 -171.603 8.58096 86.1717 -32.0671 -2.44317 -1.98129 75.1299 6.81888 -3.6922 12.0494 -6.95642 0.399203 158.087 -1.39284 64.1827 -36.4478 32.67 6.65374 59.3711 0.118632 0.0435433 24.9642 -0.0418791 -2.27561 0.85815 7.78365 -89.7301 11.3045 1.83359 0.355769 -0.36519 1.84745 0.274685 -22.9089 1.64185 0.890519 -2.89625 1.64187 0.890519 89.0615 -46.936 -102.844 24.8603 -14.0717 -8.34252 -21.728 -9.60069 -29.7032 -9.70454 -0.143146 -3.50182 -85.1329 -41.1724 84.9456 -43.1433 12.3195 18.0929 10.5954 -3.7483 -18.7627 -4.73507 -0.156557 -1.1022 -0.608503 13.8347 8.94434 8.22417 12.765 3.53403 
-13.9346 98.1612 24.6521 97.2654 -1.93365 83.8329 -174.314 8.12396 81.0161 -37.8078 6.83865 0.307147 79.4587 8.49278 -1.95601 7.78187 -7.95778 -1.23589 168.83 -1.00995 71.9894 -52.8294 4.7001 -6.65992 65.0636 -2.96575 -2.35186 19.25 -2.80636 3.4977 0.463889 7.87852 -89.8391 11.1171 0.998085 0.223357 -0.553528 1.00697 0.179202 -23.0908 0.884816 0.513009 -3.07819 0.884839 0.513016 89.3287 -46.076 -102.65 25.5098 -11.8138 -4.09104 -18.3513 -7.83339 -20.7642 -7.7028 -0.141789 -2.98682 -85.8938 -43.7297 84.1192 -39.4873 13.5593 14.6837 9.64119 -5.74228 -14.2884 -4.98563 -0.166872 -0.678264 0.544455 13.272 10.6332 9.77269 11.6725 1.48683 
